<mxfile host="app.diagrams.net" modified="2021-01-21T06:27:50.366Z" agent="5.0 (Windows)" etag="COsLSM-d28MCaNUrF6CG" version="14.2.4" type="github">
  <diagram name="Page-1" id="c37626ed-c26b-45fb-9056-f9ebc6bb27b6">
    <mxGraphModel dx="1148" dy="724" grid="0" gridSize="10" guides="1" tooltips="1" connect="1" arrows="1" fold="1" page="1" pageScale="1" pageWidth="1100" pageHeight="850" background="#ffffff" math="0" shadow="0">
      <root>
        <mxCell id="0" />
        <mxCell id="1" parent="0" />
        <mxCell id="JGmPX7OikCuhrWK-LUX0-12" value="" style="rounded=1;whiteSpace=wrap;html=1;" parent="1" vertex="1">
          <mxGeometry x="327" y="8" width="551" height="157" as="geometry" />
        </mxCell>
        <mxCell id="OKwAvxDawEh_owdR1NRN-10" style="edgeStyle=none;rounded=0;orthogonalLoop=1;jettySize=auto;html=1;endArrow=none;endFill=0;shape=link;" parent="1" source="OKwAvxDawEh_owdR1NRN-1" target="OKwAvxDawEh_owdR1NRN-5" edge="1">
          <mxGeometry relative="1" as="geometry" />
        </mxCell>
        <mxCell id="OKwAvxDawEh_owdR1NRN-1" value="" style="shape=mxgraph.cisco.switches.layer_3_switch;html=1;pointerEvents=1;dashed=0;fillColor=#036897;strokeColor=#ffffff;strokeWidth=2;verticalLabelPosition=bottom;verticalAlign=top;align=center;outlineConnect=0;" parent="1" vertex="1">
          <mxGeometry x="78" y="224" width="64" height="64" as="geometry" />
        </mxCell>
        <mxCell id="OKwAvxDawEh_owdR1NRN-11" style="edgeStyle=none;rounded=0;orthogonalLoop=1;jettySize=auto;html=1;endArrow=none;endFill=0;" parent="1" source="OKwAvxDawEh_owdR1NRN-5" target="OKwAvxDawEh_owdR1NRN-6" edge="1">
          <mxGeometry relative="1" as="geometry" />
        </mxCell>
        <mxCell id="OKwAvxDawEh_owdR1NRN-5" value="" style="shape=mxgraph.cisco.security.ios_firewall;html=1;pointerEvents=1;dashed=0;fillColor=#036897;strokeColor=#ffffff;strokeWidth=2;verticalLabelPosition=bottom;verticalAlign=top;align=center;outlineConnect=0;" parent="1" vertex="1">
          <mxGeometry x="418" y="47" width="63" height="100" as="geometry" />
        </mxCell>
        <mxCell id="OKwAvxDawEh_owdR1NRN-8" style="rounded=0;orthogonalLoop=1;jettySize=auto;html=1;endArrow=none;endFill=0;shape=link;" parent="1" source="OKwAvxDawEh_owdR1NRN-6" target="OKwAvxDawEh_owdR1NRN-7" edge="1">
          <mxGeometry relative="1" as="geometry" />
        </mxCell>
        <mxCell id="JGmPX7OikCuhrWK-LUX0-8" style="edgeStyle=none;rounded=0;orthogonalLoop=1;jettySize=auto;html=1;endArrow=none;endFill=0;" parent="1" source="OKwAvxDawEh_owdR1NRN-6" target="JGmPX7OikCuhrWK-LUX0-7" edge="1">
          <mxGeometry relative="1" as="geometry" />
        </mxCell>
        <mxCell id="OKwAvxDawEh_owdR1NRN-6" value="" style="shape=mxgraph.cisco.switches.layer_3_switch;html=1;pointerEvents=1;dashed=0;fillColor=#036897;strokeColor=#ffffff;strokeWidth=2;verticalLabelPosition=bottom;verticalAlign=top;align=center;outlineConnect=0;" parent="1" vertex="1">
          <mxGeometry x="663" y="65" width="64" height="64" as="geometry" />
        </mxCell>
        <mxCell id="OKwAvxDawEh_owdR1NRN-9" style="edgeStyle=none;rounded=0;orthogonalLoop=1;jettySize=auto;html=1;endArrow=none;endFill=0;shape=link;" parent="1" source="OKwAvxDawEh_owdR1NRN-7" target="OKwAvxDawEh_owdR1NRN-1" edge="1">
          <mxGeometry relative="1" as="geometry" />
        </mxCell>
        <mxCell id="OKwAvxDawEh_owdR1NRN-7" value="备机房核心" style="shape=mxgraph.cisco.switches.layer_3_switch;html=1;pointerEvents=1;dashed=0;fillColor=#036897;strokeColor=#ffffff;strokeWidth=2;verticalLabelPosition=bottom;verticalAlign=top;align=center;outlineConnect=0;" parent="1" vertex="1">
          <mxGeometry x="417" y="224" width="64" height="64" as="geometry" />
        </mxCell>
        <mxCell id="OKwAvxDawEh_owdR1NRN-14" value="10.37.46.2" style="text;html=1;strokeColor=none;fillColor=none;align=center;verticalAlign=middle;whiteSpace=wrap;rounded=0;" parent="1" vertex="1">
          <mxGeometry x="168" y="227" width="80" height="20" as="geometry" />
        </mxCell>
        <mxCell id="OKwAvxDawEh_owdR1NRN-16" value="10.37.46.1" style="text;html=1;strokeColor=none;fillColor=none;align=center;verticalAlign=middle;whiteSpace=wrap;rounded=0;" parent="1" vertex="1">
          <mxGeometry x="346" y="85" width="56" height="20" as="geometry" />
        </mxCell>
        <mxCell id="OKwAvxDawEh_owdR1NRN-17" value="10.37.46.5" style="text;html=1;strokeColor=none;fillColor=none;align=center;verticalAlign=middle;whiteSpace=wrap;rounded=0;" parent="1" vertex="1">
          <mxGeometry x="359" y="127" width="56" height="20" as="geometry" />
        </mxCell>
        <mxCell id="OKwAvxDawEh_owdR1NRN-18" value="10.37.46.6" style="text;html=1;strokeColor=none;fillColor=none;align=center;verticalAlign=middle;whiteSpace=wrap;rounded=0;" parent="1" vertex="1">
          <mxGeometry x="168" y="264" width="60" height="20" as="geometry" />
        </mxCell>
        <mxCell id="OKwAvxDawEh_owdR1NRN-19" value="VLAN2010 10.37.46.10" style="text;html=1;strokeColor=none;fillColor=none;align=center;verticalAlign=middle;whiteSpace=wrap;rounded=0;" parent="1" vertex="1">
          <mxGeometry x="66" y="305" width="152" height="20" as="geometry" />
        </mxCell>
        <mxCell id="OKwAvxDawEh_owdR1NRN-20" style="edgeStyle=none;shape=link;rounded=0;orthogonalLoop=1;jettySize=auto;html=1;exitX=0.5;exitY=1;exitDx=0;exitDy=0;endArrow=none;endFill=0;" parent="1" source="OKwAvxDawEh_owdR1NRN-14" target="OKwAvxDawEh_owdR1NRN-14" edge="1">
          <mxGeometry relative="1" as="geometry" />
        </mxCell>
        <mxCell id="OKwAvxDawEh_owdR1NRN-21" value="&lt;div&gt;VLAN2010 10.37.46.9&lt;/div&gt;&lt;div&gt;VLAN2098 10.37.46.17&lt;br&gt;&lt;/div&gt;" style="text;html=1;strokeColor=none;fillColor=none;align=center;verticalAlign=middle;whiteSpace=wrap;rounded=0;" parent="1" vertex="1">
          <mxGeometry x="672" y="297" width="136" height="52" as="geometry" />
        </mxCell>
        <mxCell id="OKwAvxDawEh_owdR1NRN-24" value="10.37.46.14" style="text;html=1;strokeColor=none;fillColor=none;align=center;verticalAlign=middle;whiteSpace=wrap;rounded=0;" parent="1" vertex="1">
          <mxGeometry x="483" y="82" width="76" height="20" as="geometry" />
        </mxCell>
        <mxCell id="OKwAvxDawEh_owdR1NRN-25" value="10.37.46.13" style="text;html=1;strokeColor=none;fillColor=none;align=center;verticalAlign=middle;whiteSpace=wrap;rounded=0;" parent="1" vertex="1">
          <mxGeometry x="649" y="141" width="76" height="20" as="geometry" />
        </mxCell>
        <mxCell id="OKwAvxDawEh_owdR1NRN-26" value="&lt;div&gt;10.37.45.254/25&lt;/div&gt;&lt;div&gt;10.37.46.254/25&lt;/div&gt;&lt;div&gt;各卫生院网关&lt;br&gt;&lt;/div&gt;" style="text;html=1;strokeColor=none;fillColor=none;align=center;verticalAlign=middle;whiteSpace=wrap;rounded=0;" parent="1" vertex="1">
          <mxGeometry x="727" y="59" width="110" height="60" as="geometry" />
        </mxCell>
        <mxCell id="JGmPX7OikCuhrWK-LUX0-1" value="10.37.219.254" style="shape=mxgraph.cisco.switches.layer_3_switch;html=1;pointerEvents=1;dashed=0;fillColor=#036897;strokeColor=#ffffff;strokeWidth=2;verticalLabelPosition=bottom;verticalAlign=top;align=center;outlineConnect=0;" parent="1" vertex="1">
          <mxGeometry x="78" y="608" width="64" height="64" as="geometry" />
        </mxCell>
        <mxCell id="JGmPX7OikCuhrWK-LUX0-3" value="" style="rounded=0;orthogonalLoop=1;jettySize=auto;html=1;endArrow=none;endFill=0;" parent="1" source="JGmPX7OikCuhrWK-LUX0-2" target="JGmPX7OikCuhrWK-LUX0-1" edge="1">
          <mxGeometry relative="1" as="geometry" />
        </mxCell>
        <mxCell id="JGmPX7OikCuhrWK-LUX0-4" style="edgeStyle=none;rounded=0;orthogonalLoop=1;jettySize=auto;html=1;endArrow=none;endFill=0;" parent="1" source="JGmPX7OikCuhrWK-LUX0-2" target="OKwAvxDawEh_owdR1NRN-1" edge="1">
          <mxGeometry relative="1" as="geometry" />
        </mxCell>
        <mxCell id="JGmPX7OikCuhrWK-LUX0-2" value="" style="points=[[0.5,0,0],[1,0.5,0],[0.5,1,0],[0,0.5,0],[0.145,0.145,0],[0.8555,0.145,0],[0.855,0.8555,0],[0.145,0.855,0]];verticalLabelPosition=bottom;html=1;verticalAlign=top;aspect=fixed;align=center;pointerEvents=1;shape=mxgraph.cisco19.rect;prIcon=router;fillColor=#FAFAFA;strokeColor=#005073;" parent="1" vertex="1">
          <mxGeometry x="85" y="491" width="50" height="50" as="geometry" />
        </mxCell>
        <mxCell id="JGmPX7OikCuhrWK-LUX0-5" value="10.37.45.230" style="pointerEvents=1;shadow=0;dashed=0;html=1;strokeColor=none;fillColor=#005F4B;labelPosition=center;verticalLabelPosition=bottom;verticalAlign=top;align=center;outlineConnect=0;shape=mxgraph.veeam2.virtual_machine;" parent="1" vertex="1">
          <mxGeometry x="998" y="167" width="28.000000000000004" height="28.000000000000004" as="geometry" />
        </mxCell>
        <mxCell id="JGmPX7OikCuhrWK-LUX0-6" value="10.37.219.1" style="pointerEvents=1;shadow=0;dashed=0;html=1;strokeColor=none;fillColor=#005F4B;labelPosition=center;verticalLabelPosition=bottom;verticalAlign=top;align=center;outlineConnect=0;shape=mxgraph.veeam2.virtual_machine;" parent="1" vertex="1">
          <mxGeometry x="998" y="306" width="28.000000000000004" height="28.000000000000004" as="geometry" />
        </mxCell>
        <mxCell id="JGmPX7OikCuhrWK-LUX0-9" style="edgeStyle=none;rounded=0;orthogonalLoop=1;jettySize=auto;html=1;endArrow=none;endFill=0;" parent="1" source="JGmPX7OikCuhrWK-LUX0-7" target="JGmPX7OikCuhrWK-LUX0-5" edge="1">
          <mxGeometry relative="1" as="geometry" />
        </mxCell>
        <mxCell id="JGmPX7OikCuhrWK-LUX0-10" style="edgeStyle=none;rounded=0;orthogonalLoop=1;jettySize=auto;html=1;endArrow=none;endFill=0;" parent="1" source="JGmPX7OikCuhrWK-LUX0-7" target="JGmPX7OikCuhrWK-LUX0-6" edge="1">
          <mxGeometry relative="1" as="geometry" />
        </mxCell>
        <mxCell id="JGmPX7OikCuhrWK-LUX0-7" value="" style="shape=mxgraph.cisco.switches.layer_3_switch;html=1;pointerEvents=1;dashed=0;fillColor=#036897;strokeColor=#ffffff;strokeWidth=2;verticalLabelPosition=bottom;verticalAlign=top;align=center;outlineConnect=0;" parent="1" vertex="1">
          <mxGeometry x="862" y="224" width="64" height="64" as="geometry" />
        </mxCell>
        <mxCell id="JGmPX7OikCuhrWK-LUX0-11" value="" style="curved=1;endArrow=classic;html=1;strokeWidth=4;fillColor=#0050ef;strokeColor=#001DBC;" parent="1" edge="1">
          <mxGeometry width="50" height="50" relative="1" as="geometry">
            <mxPoint x="941" y="308" as="sourcePoint" />
            <mxPoint x="982" y="187" as="targetPoint" />
            <Array as="points">
              <mxPoint x="541" y="284" />
              <mxPoint x="295" y="284" />
              <mxPoint x="165" y="466" />
              <mxPoint x="69" y="701" />
              <mxPoint x="29" y="76" />
            </Array>
          </mxGeometry>
        </mxCell>
        <mxCell id="JGmPX7OikCuhrWK-LUX0-13" value="同一台设备" style="text;html=1;strokeColor=none;fillColor=none;align=center;verticalAlign=middle;whiteSpace=wrap;rounded=0;" parent="1" vertex="1">
          <mxGeometry x="538" y="22" width="88" height="20" as="geometry" />
        </mxCell>
        <mxCell id="JGmPX7OikCuhrWK-LUX0-14" value="" style="shape=flexArrow;endArrow=classic;startArrow=classic;html=1;strokeWidth=4;" parent="1" edge="1">
          <mxGeometry width="50" height="50" relative="1" as="geometry">
            <mxPoint x="121" y="471" as="sourcePoint" />
            <mxPoint x="608" y="173" as="targetPoint" />
          </mxGeometry>
        </mxCell>
        <mxCell id="JGmPX7OikCuhrWK-LUX0-15" value="VTEP" style="text;html=1;strokeColor=none;fillColor=none;align=center;verticalAlign=middle;whiteSpace=wrap;rounded=0;" parent="1" vertex="1">
          <mxGeometry x="102" y="417" width="53" height="31" as="geometry" />
        </mxCell>
        <mxCell id="JGmPX7OikCuhrWK-LUX0-16" value="VTEP" style="text;html=1;strokeColor=none;fillColor=none;align=center;verticalAlign=middle;whiteSpace=wrap;rounded=0;" parent="1" vertex="1">
          <mxGeometry x="604" y="165.5" width="53" height="31" as="geometry" />
        </mxCell>
        <mxCell id="AalRJTSdsioCzHDBXPua-2" value="VLAN2010 10.37.46.9" style="text;html=1;strokeColor=none;fillColor=none;align=center;verticalAlign=middle;whiteSpace=wrap;rounded=0;" vertex="1" parent="1">
          <mxGeometry x="649" y="24" width="152" height="20" as="geometry" />
        </mxCell>
      </root>
    </mxGraphModel>
  </diagram>
</mxfile>
